<mxfile host="app.diagrams.net" modified="2024-04-12T03:10:41.263Z" agent="Mozilla/5.0 (Windows NT 10.0; Win64; x64) AppleWebKit/537.36 (KHTML, like Gecko) Chrome/123.0.0.0 Safari/537.36" etag="t9CVKP2nJSuZTkHaD0W6" version="24.2.3" type="github">
  <diagram name="PÃ¡gina-1" id="_jQOQnfcal9wUSiFGuUR">
    <mxGraphModel dx="1050" dy="1699" grid="1" gridSize="10" guides="1" tooltips="1" connect="1" arrows="1" fold="1" page="1" pageScale="1" pageWidth="827" pageHeight="1169" math="0" shadow="0">
      <root>
        <mxCell id="0" />
        <mxCell id="1" parent="0" />
        <mxCell id="MDByDgpXoC-VR9dVpPsH-48" value="" style="edgeStyle=orthogonalEdgeStyle;rounded=0;orthogonalLoop=1;jettySize=auto;html=1;" edge="1" parent="1" source="MDByDgpXoC-VR9dVpPsH-5" target="MDByDgpXoC-VR9dVpPsH-47">
          <mxGeometry relative="1" as="geometry" />
        </mxCell>
        <mxCell id="MDByDgpXoC-VR9dVpPsH-5" value="Inicio" style="rounded=1;whiteSpace=wrap;html=1;" vertex="1" parent="1">
          <mxGeometry x="325" y="-80" width="150" height="60" as="geometry" />
        </mxCell>
        <mxCell id="MDByDgpXoC-VR9dVpPsH-18" value="" style="edgeStyle=orthogonalEdgeStyle;rounded=0;orthogonalLoop=1;jettySize=auto;html=1;" edge="1" parent="1" source="MDByDgpXoC-VR9dVpPsH-9" target="MDByDgpXoC-VR9dVpPsH-17">
          <mxGeometry relative="1" as="geometry" />
        </mxCell>
        <mxCell id="MDByDgpXoC-VR9dVpPsH-9" value="Leer R1" style="shape=parallelogram;perimeter=parallelogramPerimeter;whiteSpace=wrap;html=1;fixedSize=1;rounded=1;" vertex="1" parent="1">
          <mxGeometry x="335" y="200" width="120" height="60" as="geometry" />
        </mxCell>
        <mxCell id="MDByDgpXoC-VR9dVpPsH-22" value="" style="edgeStyle=orthogonalEdgeStyle;rounded=0;orthogonalLoop=1;jettySize=auto;html=1;" edge="1" parent="1" source="MDByDgpXoC-VR9dVpPsH-17" target="MDByDgpXoC-VR9dVpPsH-21">
          <mxGeometry relative="1" as="geometry" />
        </mxCell>
        <mxCell id="MDByDgpXoC-VR9dVpPsH-17" value="R1&amp;lt;0" style="rhombus;whiteSpace=wrap;html=1;rounded=1;" vertex="1" parent="1">
          <mxGeometry x="355" y="320" width="80" height="80" as="geometry" />
        </mxCell>
        <mxCell id="MDByDgpXoC-VR9dVpPsH-25" value="" style="edgeStyle=orthogonalEdgeStyle;rounded=0;orthogonalLoop=1;jettySize=auto;html=1;" edge="1" parent="1" source="MDByDgpXoC-VR9dVpPsH-21" target="MDByDgpXoC-VR9dVpPsH-24">
          <mxGeometry relative="1" as="geometry" />
        </mxCell>
        <mxCell id="MDByDgpXoC-VR9dVpPsH-21" value="Escribir R1 tiene que ser mayor a 0" style="shape=parallelogram;perimeter=parallelogramPerimeter;whiteSpace=wrap;html=1;fixedSize=1;rounded=1;" vertex="1" parent="1">
          <mxGeometry x="250" y="490" width="220" height="60" as="geometry" />
        </mxCell>
        <mxCell id="MDByDgpXoC-VR9dVpPsH-23" value="Si" style="text;html=1;align=center;verticalAlign=middle;resizable=0;points=[];autosize=1;strokeColor=none;fillColor=none;" vertex="1" parent="1">
          <mxGeometry x="395" y="398" width="30" height="30" as="geometry" />
        </mxCell>
        <mxCell id="MDByDgpXoC-VR9dVpPsH-66" value="" style="edgeStyle=orthogonalEdgeStyle;rounded=0;orthogonalLoop=1;jettySize=auto;html=1;" edge="1" parent="1" source="MDByDgpXoC-VR9dVpPsH-24" target="MDByDgpXoC-VR9dVpPsH-65">
          <mxGeometry relative="1" as="geometry" />
        </mxCell>
        <mxCell id="MDByDgpXoC-VR9dVpPsH-24" value="R1&amp;lt;0" style="rhombus;whiteSpace=wrap;html=1;rounded=1;" vertex="1" parent="1">
          <mxGeometry x="320" y="620" width="80" height="80" as="geometry" />
        </mxCell>
        <mxCell id="MDByDgpXoC-VR9dVpPsH-35" style="edgeStyle=orthogonalEdgeStyle;rounded=0;orthogonalLoop=1;jettySize=auto;html=1;exitX=1;exitY=0;exitDx=0;exitDy=0;exitPerimeter=0;" edge="1" parent="1" source="MDByDgpXoC-VR9dVpPsH-28">
          <mxGeometry relative="1" as="geometry">
            <mxPoint x="400" y="20" as="targetPoint" />
            <Array as="points">
              <mxPoint x="360" y="30" />
              <mxPoint x="360" y="20" />
            </Array>
          </mxGeometry>
        </mxCell>
        <mxCell id="MDByDgpXoC-VR9dVpPsH-36" style="edgeStyle=orthogonalEdgeStyle;rounded=0;orthogonalLoop=1;jettySize=auto;html=1;exitX=1;exitY=1;exitDx=0;exitDy=0;exitPerimeter=0;entryX=0;entryY=0.5;entryDx=0;entryDy=0;" edge="1" parent="1" source="MDByDgpXoC-VR9dVpPsH-28" target="MDByDgpXoC-VR9dVpPsH-24">
          <mxGeometry relative="1" as="geometry">
            <Array as="points">
              <mxPoint x="260" y="660" />
              <mxPoint x="260" y="660" />
            </Array>
          </mxGeometry>
        </mxCell>
        <mxCell id="MDByDgpXoC-VR9dVpPsH-28" value="" style="strokeWidth=2;html=1;shape=mxgraph.flowchart.annotation_1;align=left;pointerEvents=1;" vertex="1" parent="1">
          <mxGeometry x="80" y="30" width="160" height="630" as="geometry" />
        </mxCell>
        <mxCell id="MDByDgpXoC-VR9dVpPsH-43" style="edgeStyle=orthogonalEdgeStyle;rounded=0;orthogonalLoop=1;jettySize=auto;html=1;exitX=1;exitY=1;exitDx=0;exitDy=0;exitPerimeter=0;entryX=1;entryY=0.5;entryDx=0;entryDy=0;" edge="1" parent="1" source="MDByDgpXoC-VR9dVpPsH-42" target="MDByDgpXoC-VR9dVpPsH-17">
          <mxGeometry relative="1" as="geometry">
            <Array as="points">
              <mxPoint x="480" y="360" />
              <mxPoint x="480" y="360" />
            </Array>
          </mxGeometry>
        </mxCell>
        <mxCell id="MDByDgpXoC-VR9dVpPsH-44" style="edgeStyle=orthogonalEdgeStyle;rounded=0;orthogonalLoop=1;jettySize=auto;html=1;exitX=1;exitY=0;exitDx=0;exitDy=0;exitPerimeter=0;" edge="1" parent="1" source="MDByDgpXoC-VR9dVpPsH-42">
          <mxGeometry relative="1" as="geometry">
            <mxPoint x="360" y="600" as="targetPoint" />
            <Array as="points">
              <mxPoint x="431" y="600" />
              <mxPoint x="431" y="601" />
            </Array>
          </mxGeometry>
        </mxCell>
        <mxCell id="MDByDgpXoC-VR9dVpPsH-42" value="" style="strokeWidth=2;html=1;shape=mxgraph.flowchart.annotation_1;align=left;pointerEvents=1;direction=west;" vertex="1" parent="1">
          <mxGeometry x="500" y="360" width="50" height="240" as="geometry" />
        </mxCell>
        <mxCell id="MDByDgpXoC-VR9dVpPsH-45" value="No" style="text;html=1;align=center;verticalAlign=middle;resizable=0;points=[];autosize=1;strokeColor=none;fillColor=none;" vertex="1" parent="1">
          <mxGeometry x="550" y="465" width="40" height="30" as="geometry" />
        </mxCell>
        <mxCell id="MDByDgpXoC-VR9dVpPsH-49" value="" style="edgeStyle=orthogonalEdgeStyle;rounded=0;orthogonalLoop=1;jettySize=auto;html=1;" edge="1" parent="1" source="MDByDgpXoC-VR9dVpPsH-47" target="MDByDgpXoC-VR9dVpPsH-9">
          <mxGeometry relative="1" as="geometry" />
        </mxCell>
        <mxCell id="MDByDgpXoC-VR9dVpPsH-47" value="Escribir Ingrese la primera Resistencia" style="shape=parallelogram;perimeter=parallelogramPerimeter;whiteSpace=wrap;html=1;fixedSize=1;rounded=1;" vertex="1" parent="1">
          <mxGeometry x="310" y="60" width="180" height="60" as="geometry" />
        </mxCell>
        <mxCell id="MDByDgpXoC-VR9dVpPsH-50" value="" style="edgeStyle=orthogonalEdgeStyle;rounded=0;orthogonalLoop=1;jettySize=auto;html=1;" edge="1" parent="1" source="MDByDgpXoC-VR9dVpPsH-51" target="MDByDgpXoC-VR9dVpPsH-53">
          <mxGeometry relative="1" as="geometry" />
        </mxCell>
        <mxCell id="MDByDgpXoC-VR9dVpPsH-51" value="Leer R2" style="shape=parallelogram;perimeter=parallelogramPerimeter;whiteSpace=wrap;html=1;fixedSize=1;rounded=1;" vertex="1" parent="1">
          <mxGeometry x="285" y="920" width="120" height="60" as="geometry" />
        </mxCell>
        <mxCell id="MDByDgpXoC-VR9dVpPsH-52" value="" style="edgeStyle=orthogonalEdgeStyle;rounded=0;orthogonalLoop=1;jettySize=auto;html=1;" edge="1" parent="1" source="MDByDgpXoC-VR9dVpPsH-53" target="MDByDgpXoC-VR9dVpPsH-55">
          <mxGeometry relative="1" as="geometry" />
        </mxCell>
        <mxCell id="MDByDgpXoC-VR9dVpPsH-53" value="R2&amp;lt;0" style="rhombus;whiteSpace=wrap;html=1;rounded=1;" vertex="1" parent="1">
          <mxGeometry x="305" y="1040" width="80" height="80" as="geometry" />
        </mxCell>
        <mxCell id="MDByDgpXoC-VR9dVpPsH-54" value="" style="edgeStyle=orthogonalEdgeStyle;rounded=0;orthogonalLoop=1;jettySize=auto;html=1;" edge="1" parent="1" source="MDByDgpXoC-VR9dVpPsH-55">
          <mxGeometry relative="1" as="geometry">
            <mxPoint x="310" y="1340" as="targetPoint" />
          </mxGeometry>
        </mxCell>
        <mxCell id="MDByDgpXoC-VR9dVpPsH-55" value="Escribir R2 tiene que ser mayor a 0" style="shape=parallelogram;perimeter=parallelogramPerimeter;whiteSpace=wrap;html=1;fixedSize=1;rounded=1;" vertex="1" parent="1">
          <mxGeometry x="200" y="1210" width="220" height="60" as="geometry" />
        </mxCell>
        <mxCell id="MDByDgpXoC-VR9dVpPsH-56" value="Si" style="text;html=1;align=center;verticalAlign=middle;resizable=0;points=[];autosize=1;strokeColor=none;fillColor=none;" vertex="1" parent="1">
          <mxGeometry x="345" y="1118" width="30" height="30" as="geometry" />
        </mxCell>
        <mxCell id="MDByDgpXoC-VR9dVpPsH-57" style="edgeStyle=orthogonalEdgeStyle;rounded=0;orthogonalLoop=1;jettySize=auto;html=1;exitX=1;exitY=0;exitDx=0;exitDy=0;exitPerimeter=0;" edge="1" parent="1" source="MDByDgpXoC-VR9dVpPsH-59">
          <mxGeometry relative="1" as="geometry">
            <mxPoint x="350" y="740" as="targetPoint" />
            <Array as="points">
              <mxPoint x="310" y="750" />
              <mxPoint x="310" y="740" />
            </Array>
          </mxGeometry>
        </mxCell>
        <mxCell id="MDByDgpXoC-VR9dVpPsH-58" style="edgeStyle=orthogonalEdgeStyle;rounded=0;orthogonalLoop=1;jettySize=auto;html=1;exitX=1;exitY=1;exitDx=0;exitDy=0;exitPerimeter=0;entryX=0;entryY=0.5;entryDx=0;entryDy=0;" edge="1" parent="1" source="MDByDgpXoC-VR9dVpPsH-59">
          <mxGeometry relative="1" as="geometry">
            <mxPoint x="270" y="1380" as="targetPoint" />
            <Array as="points">
              <mxPoint x="210" y="1380" />
              <mxPoint x="210" y="1380" />
            </Array>
          </mxGeometry>
        </mxCell>
        <mxCell id="MDByDgpXoC-VR9dVpPsH-59" value="" style="strokeWidth=2;html=1;shape=mxgraph.flowchart.annotation_1;align=left;pointerEvents=1;" vertex="1" parent="1">
          <mxGeometry x="30" y="750" width="160" height="630" as="geometry" />
        </mxCell>
        <mxCell id="MDByDgpXoC-VR9dVpPsH-60" style="edgeStyle=orthogonalEdgeStyle;rounded=0;orthogonalLoop=1;jettySize=auto;html=1;exitX=1;exitY=1;exitDx=0;exitDy=0;exitPerimeter=0;entryX=1;entryY=0.5;entryDx=0;entryDy=0;" edge="1" parent="1" source="MDByDgpXoC-VR9dVpPsH-62" target="MDByDgpXoC-VR9dVpPsH-53">
          <mxGeometry relative="1" as="geometry">
            <Array as="points">
              <mxPoint x="430" y="1080" />
              <mxPoint x="430" y="1080" />
            </Array>
          </mxGeometry>
        </mxCell>
        <mxCell id="MDByDgpXoC-VR9dVpPsH-61" style="edgeStyle=orthogonalEdgeStyle;rounded=0;orthogonalLoop=1;jettySize=auto;html=1;exitX=1;exitY=0;exitDx=0;exitDy=0;exitPerimeter=0;" edge="1" parent="1" source="MDByDgpXoC-VR9dVpPsH-62">
          <mxGeometry relative="1" as="geometry">
            <mxPoint x="310" y="1320" as="targetPoint" />
            <Array as="points">
              <mxPoint x="381" y="1320" />
              <mxPoint x="381" y="1321" />
            </Array>
          </mxGeometry>
        </mxCell>
        <mxCell id="MDByDgpXoC-VR9dVpPsH-62" value="" style="strokeWidth=2;html=1;shape=mxgraph.flowchart.annotation_1;align=left;pointerEvents=1;direction=west;" vertex="1" parent="1">
          <mxGeometry x="450" y="1080" width="50" height="240" as="geometry" />
        </mxCell>
        <mxCell id="MDByDgpXoC-VR9dVpPsH-63" value="No" style="text;html=1;align=center;verticalAlign=middle;resizable=0;points=[];autosize=1;strokeColor=none;fillColor=none;" vertex="1" parent="1">
          <mxGeometry x="500" y="1185" width="40" height="30" as="geometry" />
        </mxCell>
        <mxCell id="MDByDgpXoC-VR9dVpPsH-64" value="" style="edgeStyle=orthogonalEdgeStyle;rounded=0;orthogonalLoop=1;jettySize=auto;html=1;" edge="1" parent="1" source="MDByDgpXoC-VR9dVpPsH-65" target="MDByDgpXoC-VR9dVpPsH-51">
          <mxGeometry relative="1" as="geometry" />
        </mxCell>
        <mxCell id="MDByDgpXoC-VR9dVpPsH-65" value="Escribir Ingrese la primera Resistencia" style="shape=parallelogram;perimeter=parallelogramPerimeter;whiteSpace=wrap;html=1;fixedSize=1;rounded=1;" vertex="1" parent="1">
          <mxGeometry x="260" y="780" width="180" height="60" as="geometry" />
        </mxCell>
        <mxCell id="MDByDgpXoC-VR9dVpPsH-85" value="" style="edgeStyle=orthogonalEdgeStyle;rounded=0;orthogonalLoop=1;jettySize=auto;html=1;" edge="1" parent="1" source="MDByDgpXoC-VR9dVpPsH-67" target="MDByDgpXoC-VR9dVpPsH-83">
          <mxGeometry relative="1" as="geometry" />
        </mxCell>
        <mxCell id="MDByDgpXoC-VR9dVpPsH-67" value="R2&amp;lt;0" style="rhombus;whiteSpace=wrap;html=1;rounded=1;" vertex="1" parent="1">
          <mxGeometry x="270" y="1340" width="80" height="80" as="geometry" />
        </mxCell>
        <mxCell id="MDByDgpXoC-VR9dVpPsH-68" value="" style="edgeStyle=orthogonalEdgeStyle;rounded=0;orthogonalLoop=1;jettySize=auto;html=1;" edge="1" parent="1" source="MDByDgpXoC-VR9dVpPsH-69" target="MDByDgpXoC-VR9dVpPsH-71">
          <mxGeometry relative="1" as="geometry" />
        </mxCell>
        <mxCell id="MDByDgpXoC-VR9dVpPsH-69" value="Leer R3" style="shape=parallelogram;perimeter=parallelogramPerimeter;whiteSpace=wrap;html=1;fixedSize=1;rounded=1;" vertex="1" parent="1">
          <mxGeometry x="265" y="1640" width="120" height="60" as="geometry" />
        </mxCell>
        <mxCell id="MDByDgpXoC-VR9dVpPsH-70" value="" style="edgeStyle=orthogonalEdgeStyle;rounded=0;orthogonalLoop=1;jettySize=auto;html=1;" edge="1" parent="1" source="MDByDgpXoC-VR9dVpPsH-71" target="MDByDgpXoC-VR9dVpPsH-73">
          <mxGeometry relative="1" as="geometry" />
        </mxCell>
        <mxCell id="MDByDgpXoC-VR9dVpPsH-71" value="R3&amp;lt;0" style="rhombus;whiteSpace=wrap;html=1;rounded=1;" vertex="1" parent="1">
          <mxGeometry x="285" y="1760" width="80" height="80" as="geometry" />
        </mxCell>
        <mxCell id="MDByDgpXoC-VR9dVpPsH-72" value="" style="edgeStyle=orthogonalEdgeStyle;rounded=0;orthogonalLoop=1;jettySize=auto;html=1;" edge="1" parent="1" source="MDByDgpXoC-VR9dVpPsH-73">
          <mxGeometry relative="1" as="geometry">
            <mxPoint x="290" y="2060" as="targetPoint" />
          </mxGeometry>
        </mxCell>
        <mxCell id="MDByDgpXoC-VR9dVpPsH-73" value="Escribir R2 tiene que ser mayor a 0" style="shape=parallelogram;perimeter=parallelogramPerimeter;whiteSpace=wrap;html=1;fixedSize=1;rounded=1;" vertex="1" parent="1">
          <mxGeometry x="180" y="1930" width="220" height="60" as="geometry" />
        </mxCell>
        <mxCell id="MDByDgpXoC-VR9dVpPsH-74" value="Si" style="text;html=1;align=center;verticalAlign=middle;resizable=0;points=[];autosize=1;strokeColor=none;fillColor=none;" vertex="1" parent="1">
          <mxGeometry x="325" y="1838" width="30" height="30" as="geometry" />
        </mxCell>
        <mxCell id="MDByDgpXoC-VR9dVpPsH-76" style="edgeStyle=orthogonalEdgeStyle;rounded=0;orthogonalLoop=1;jettySize=auto;html=1;exitX=1;exitY=1;exitDx=0;exitDy=0;exitPerimeter=0;entryX=0;entryY=0.5;entryDx=0;entryDy=0;" edge="1" parent="1" source="MDByDgpXoC-VR9dVpPsH-77">
          <mxGeometry relative="1" as="geometry">
            <mxPoint x="250" y="2100" as="targetPoint" />
            <Array as="points">
              <mxPoint x="190" y="2100" />
              <mxPoint x="190" y="2100" />
            </Array>
          </mxGeometry>
        </mxCell>
        <mxCell id="MDByDgpXoC-VR9dVpPsH-86" style="edgeStyle=orthogonalEdgeStyle;rounded=0;orthogonalLoop=1;jettySize=auto;html=1;exitX=1;exitY=0;exitDx=0;exitDy=0;exitPerimeter=0;" edge="1" parent="1" source="MDByDgpXoC-VR9dVpPsH-77">
          <mxGeometry relative="1" as="geometry">
            <mxPoint x="330" y="1470" as="targetPoint" />
            <Array as="points">
              <mxPoint x="250" y="1470" />
              <mxPoint x="250" y="1471" />
            </Array>
          </mxGeometry>
        </mxCell>
        <mxCell id="MDByDgpXoC-VR9dVpPsH-77" value="" style="strokeWidth=2;html=1;shape=mxgraph.flowchart.annotation_1;align=left;pointerEvents=1;" vertex="1" parent="1">
          <mxGeometry x="10" y="1470" width="160" height="630" as="geometry" />
        </mxCell>
        <mxCell id="MDByDgpXoC-VR9dVpPsH-78" style="edgeStyle=orthogonalEdgeStyle;rounded=0;orthogonalLoop=1;jettySize=auto;html=1;exitX=1;exitY=1;exitDx=0;exitDy=0;exitPerimeter=0;entryX=1;entryY=0.5;entryDx=0;entryDy=0;" edge="1" parent="1" source="MDByDgpXoC-VR9dVpPsH-80" target="MDByDgpXoC-VR9dVpPsH-71">
          <mxGeometry relative="1" as="geometry">
            <Array as="points">
              <mxPoint x="410" y="1800" />
              <mxPoint x="410" y="1800" />
            </Array>
          </mxGeometry>
        </mxCell>
        <mxCell id="MDByDgpXoC-VR9dVpPsH-79" style="edgeStyle=orthogonalEdgeStyle;rounded=0;orthogonalLoop=1;jettySize=auto;html=1;exitX=1;exitY=0;exitDx=0;exitDy=0;exitPerimeter=0;" edge="1" parent="1" source="MDByDgpXoC-VR9dVpPsH-80">
          <mxGeometry relative="1" as="geometry">
            <mxPoint x="290" y="2040" as="targetPoint" />
            <Array as="points">
              <mxPoint x="361" y="2040" />
              <mxPoint x="361" y="2041" />
            </Array>
          </mxGeometry>
        </mxCell>
        <mxCell id="MDByDgpXoC-VR9dVpPsH-80" value="" style="strokeWidth=2;html=1;shape=mxgraph.flowchart.annotation_1;align=left;pointerEvents=1;direction=west;" vertex="1" parent="1">
          <mxGeometry x="430" y="1800" width="50" height="240" as="geometry" />
        </mxCell>
        <mxCell id="MDByDgpXoC-VR9dVpPsH-81" value="No" style="text;html=1;align=center;verticalAlign=middle;resizable=0;points=[];autosize=1;strokeColor=none;fillColor=none;" vertex="1" parent="1">
          <mxGeometry x="490" y="1905" width="40" height="30" as="geometry" />
        </mxCell>
        <mxCell id="MDByDgpXoC-VR9dVpPsH-82" value="" style="edgeStyle=orthogonalEdgeStyle;rounded=0;orthogonalLoop=1;jettySize=auto;html=1;" edge="1" parent="1" source="MDByDgpXoC-VR9dVpPsH-83" target="MDByDgpXoC-VR9dVpPsH-69">
          <mxGeometry relative="1" as="geometry" />
        </mxCell>
        <mxCell id="MDByDgpXoC-VR9dVpPsH-83" value="Escribir Ingrese la primera Resistencia" style="shape=parallelogram;perimeter=parallelogramPerimeter;whiteSpace=wrap;html=1;fixedSize=1;rounded=1;" vertex="1" parent="1">
          <mxGeometry x="240" y="1500" width="180" height="60" as="geometry" />
        </mxCell>
        <mxCell id="MDByDgpXoC-VR9dVpPsH-88" value="" style="edgeStyle=orthogonalEdgeStyle;rounded=0;orthogonalLoop=1;jettySize=auto;html=1;" edge="1" parent="1" source="MDByDgpXoC-VR9dVpPsH-84" target="MDByDgpXoC-VR9dVpPsH-87">
          <mxGeometry relative="1" as="geometry" />
        </mxCell>
        <mxCell id="MDByDgpXoC-VR9dVpPsH-84" value="R3&amp;lt;0" style="rhombus;whiteSpace=wrap;html=1;rounded=1;" vertex="1" parent="1">
          <mxGeometry x="250" y="2060" width="80" height="80" as="geometry" />
        </mxCell>
        <mxCell id="MDByDgpXoC-VR9dVpPsH-90" value="" style="edgeStyle=orthogonalEdgeStyle;rounded=0;orthogonalLoop=1;jettySize=auto;html=1;" edge="1" parent="1" source="MDByDgpXoC-VR9dVpPsH-87" target="MDByDgpXoC-VR9dVpPsH-89">
          <mxGeometry relative="1" as="geometry" />
        </mxCell>
        <mxCell id="MDByDgpXoC-VR9dVpPsH-87" value="Resultado = 1/((1/R1) + (1/R2) + (1/R3))&amp;nbsp;" style="rounded=1;whiteSpace=wrap;html=1;" vertex="1" parent="1">
          <mxGeometry x="230" y="2230" width="120" height="60" as="geometry" />
        </mxCell>
        <mxCell id="MDByDgpXoC-VR9dVpPsH-92" value="" style="edgeStyle=orthogonalEdgeStyle;rounded=0;orthogonalLoop=1;jettySize=auto;html=1;" edge="1" parent="1" source="MDByDgpXoC-VR9dVpPsH-89" target="MDByDgpXoC-VR9dVpPsH-91">
          <mxGeometry relative="1" as="geometry" />
        </mxCell>
        <mxCell id="MDByDgpXoC-VR9dVpPsH-89" value="Escribir La Resistencia total es de Resultado" style="shape=parallelogram;perimeter=parallelogramPerimeter;whiteSpace=wrap;html=1;fixedSize=1;rounded=1;" vertex="1" parent="1">
          <mxGeometry x="170" y="2370" width="220" height="60" as="geometry" />
        </mxCell>
        <mxCell id="MDByDgpXoC-VR9dVpPsH-91" value="Fin" style="whiteSpace=wrap;html=1;rounded=1;" vertex="1" parent="1">
          <mxGeometry x="220" y="2510" width="120" height="60" as="geometry" />
        </mxCell>
      </root>
    </mxGraphModel>
  </diagram>
</mxfile>
